<?xml version="1.0" encoding="UTF-8" standalone="no"?>
<!DOCTYPE svg PUBLIC "-//W3C//DTD SVG 1.1//EN" "http://www.w3.org/Graphics/SVG/1.1/DTD/svg11.dtd">
<svg width="100%" height="100%" viewBox="0 0 134 134" version="1.1" xmlns="http://www.w3.org/2000/svg" xmlns:xlink="http://www.w3.org/1999/xlink" xml:space="preserve" xmlns:serif="http://www.serif.com/" style="fill-rule:evenodd;clip-rule:evenodd;stroke-linejoin:round;stroke-miterlimit:2;">
    <g transform="matrix(0.845162,0,0,0.845162,10.3225,10)">
        <path d="M54.167,129.167L25,129.167L37.5,54.167L29.167,54.167L29.167,45.833L104.167,45.833L104.167,54.167L95.833,54.167L108.333,129.167L79.167,129.167L79.167,108.311C79.167,103.721 75.446,100 70.856,100L62.417,100C60.229,100 58.13,100.869 56.583,102.416C55.036,103.963 54.167,106.062 54.167,108.25L54.167,129.167ZM70.856,66.667L62.417,66.667C57.86,66.667 54.167,70.36 54.167,74.917L54.167,83.333L79.167,83.333L79.167,74.977C79.167,70.387 75.446,66.667 70.856,66.667ZM70.651,70.833C71.805,70.833 72.911,71.291 73.726,72.107C74.542,72.923 75,74.029 75,75.182L75,79.167L58.333,79.167L58.333,75.121C58.333,73.984 58.785,72.893 59.589,72.089C60.393,71.285 61.484,70.833 62.621,70.833L70.651,70.833ZM70.651,104.167C71.805,104.167 72.911,104.625 73.726,105.44C74.542,106.256 75,107.362 75,108.515L75,129.167L58.333,129.167L58.333,108.455C58.333,107.318 58.785,106.227 59.589,105.423C60.393,104.618 61.484,104.167 62.621,104.167L70.651,104.167ZM95.833,29.167L95.833,41.667L79.167,41.667L79.167,29.167L95.833,29.167ZM75,29.167L75,41.667L58.333,41.667L58.333,29.167L75,29.167ZM54.167,29.167L54.167,41.667L37.5,41.667L37.5,29.167L54.167,29.167ZM95.833,12.5L95.833,25L37.5,25L37.5,12.5L62.5,8.333L62.475,0L70.833,0L70.833,8.333L95.833,12.5Z" style="fill:rgb(170,170,170);"/>
    </g>
</svg>
