<?xml version="1.0" encoding="UTF-8" standalone="no"?><!DOCTYPE svg PUBLIC "-//W3C//DTD SVG 1.1//EN" "http://www.w3.org/Graphics/SVG/1.1/DTD/svg11.dtd"><svg width="100%" height="100%" viewBox="0 0 134 134" version="1.1" xmlns="http://www.w3.org/2000/svg" xmlns:xlink="http://www.w3.org/1999/xlink" xml:space="preserve" xmlns:serif="http://www.serif.com/" style="fill-rule:evenodd;clip-rule:evenodd;stroke-linejoin:round;stroke-miterlimit:2;"><path d="M54.167,129.167l-29.167,-0l12.5,-75l-8.333,-0l-0,-8.334l75,0l-0,8.334l-8.334,-0l12.5,75l-29.166,-0l-0,-20.856c-0,-4.59 -3.721,-8.311 -8.311,-8.311l-8.439,0c-2.188,-0 -4.287,0.869 -5.834,2.416c-1.547,1.547 -2.416,3.646 -2.416,5.834l-0,20.917Zm16.689,-62.5l-8.439,-0c-4.557,-0 -8.25,3.693 -8.25,8.25l-0,8.416l25,0l-0,-8.356c-0,-4.59 -3.721,-8.31 -8.311,-8.31Zm-0.205,4.166c1.154,0 2.26,0.458 3.075,1.274c0.816,0.816 1.274,1.922 1.274,3.075l0,3.985l-16.667,-0l0,-4.046c0,-1.137 0.452,-2.228 1.256,-3.032c0.804,-0.804 1.895,-1.256 3.032,-1.256l8.03,0Zm0,33.334c1.154,-0 2.26,0.458 3.075,1.273c0.816,0.816 1.274,1.922 1.274,3.075l0,20.652l-16.667,-0l0,-20.712c0,-1.137 0.452,-2.228 1.256,-3.032c0.804,-0.805 1.895,-1.256 3.032,-1.256l8.03,-0Zm25.182,-75l0,12.5l-16.666,-0l-0,-12.5l16.666,-0Zm-20.833,-0l0,12.5l-16.667,-0l0,-12.5l16.667,-0Zm-20.833,-0l-0,12.5l-16.667,-0l0,-12.5l16.667,-0Zm41.666,-16.667l0,12.5l-58.333,-0l-0,-12.5l25,-4.167l-0.025,-8.333l8.358,-0l0,8.333l25,4.167Z" style="fill:#aaa;"/></svg>