<?xml version="1.0" encoding="UTF-8" standalone="no"?>
<!DOCTYPE svg PUBLIC "-//W3C//DTD SVG 1.1//EN" "http://www.w3.org/Graphics/SVG/1.1/DTD/svg11.dtd">
<svg width="100%" height="100%" viewBox="0 0 134 134" version="1.1" xmlns="http://www.w3.org/2000/svg" xmlns:xlink="http://www.w3.org/1999/xlink" xml:space="preserve" xmlns:serif="http://www.serif.com/" style="fill-rule:evenodd;clip-rule:evenodd;stroke-linejoin:round;stroke-miterlimit:2;">
    <g id="rect817" transform="matrix(1.005,0,0,1.005,0,0)">
        <rect x="0" y="0" width="133.333" height="133.333" style="fill:rgb(30,35,70);"/>
    </g>
    <g id="rect8171" serif:id="rect817" transform="matrix(1.005,0,0,1,0,0)">
        <path d="M133.333,120.133C115.302,117.393 92.043,115.742 66.667,115.742C41.291,115.742 18.032,117.393 0,120.133L0,0L133.333,0L133.333,120.133Z" style="fill:rgb(45,52,104);"/>
    </g>
    <g id="rect8172" serif:id="rect817" transform="matrix(1,0,0,1,0,0.333)">
        <rect x="50" y="87.5" width="33.333" height="29.167" style="fill:rgb(45,52,104);"/>
    </g>
    <g transform="matrix(0.996964,0,0,0.998397,0.0353699,0.52004)">
        <path d="M56.586,116.667L33.065,116.667L43.145,56.183L36.425,56.183L36.425,49.462L96.909,49.462L96.909,56.183L90.188,56.183L100.269,116.667L76.747,116.667L76.747,99.847C76.747,96.146 73.747,93.145 70.045,93.145L63.239,93.145C61.475,93.145 59.782,93.846 58.535,95.094C57.287,96.342 56.586,98.034 56.586,99.798L56.586,116.667ZM70.045,66.263L63.239,66.263C59.565,66.263 56.586,69.242 56.586,72.917L56.586,79.704L76.747,79.704L76.747,72.965C76.747,69.264 73.747,66.263 70.045,66.263ZM69.88,69.624C70.81,69.624 71.702,69.993 72.36,70.651C73.018,71.308 73.387,72.201 73.387,73.131L73.387,76.344L59.946,76.344L59.946,73.082C59.946,72.165 60.311,71.285 60.959,70.637C61.608,69.988 62.487,69.624 63.404,69.624L69.88,69.624ZM69.88,96.505C70.81,96.505 71.702,96.875 72.36,97.533C73.018,98.19 73.387,99.082 73.387,100.012L73.387,116.667L59.946,116.667L59.946,99.964C59.946,99.046 60.311,98.167 60.959,97.518C61.608,96.87 62.487,96.505 63.404,96.505L69.88,96.505ZM90.188,36.022L90.188,46.102L76.747,46.102L76.747,36.022L90.188,36.022ZM73.387,36.022L73.387,46.102L59.946,46.102L59.946,36.022L73.387,36.022ZM56.586,36.022L56.586,46.102L43.145,46.102L43.145,36.022L56.586,36.022ZM90.188,22.581L90.188,32.661L43.145,32.661L43.145,22.581L63.306,19.22L63.286,12.5L70.027,12.5L70.027,19.22L90.188,22.581Z" style="fill:rgb(167,173,217);"/>
    </g>
</svg>
